<?xml version="1.0" encoding="UTF-8" standalone="no"?>
<svg
   xmlns:dc="http://purl.org/dc/elements/1.1/"
   xmlns:cc="http://creativecommons.org/ns#"
   xmlns:rdf="http://www.w3.org/1999/02/22-rdf-syntax-ns#"
   xmlns:svg="http://www.w3.org/2000/svg"
   xmlns="http://www.w3.org/2000/svg"
   xmlns:xlink="http://www.w3.org/1999/xlink"
   version="1.1"
   id="svg2"
   viewBox="0 0 437.5 437.5">
  <metadata
     id="metadata35">
    <rdf:RDF>
      <cc:Work
         rdf:about="">
        <dc:format>image/svg+xml</dc:format>
        <dc:type
           rdf:resource="http://purl.org/dc/dcmitype/StillImage" />
        <dc:title></dc:title>
      </cc:Work>
    </rdf:RDF>
  </metadata>
  <defs
     id="defs4">
    <linearGradient
       id="a">
      <stop
         id="stop7"
         offset="0"
         stop-color="#97b20d" />
      <stop
         id="stop9"
         offset="1"
         stop-color="#fff" />
    </linearGradient>
    <linearGradient
       xlink:href="#a"
       y2=".125"
       y1=".82031"
       x2=".62595"
       x1=".36641"
       id="c" />
    <linearGradient
       xlink:href="#a"
       y2=".35156"
       y1=".74219"
       x2=".34132"
       x1=".88024"
       id="e" />
    <linearGradient
       xlink:href="#a"
       x1="4.5467e-9"
       id="d" />
    <radialGradient
       r=".41587"
       cy=".1953"
       cx=".31803"
       id="b">
      <stop
         id="stop15"
         offset="0"
         stop-color="#ae9a0d" />
      <stop
         id="stop17"
         offset="1"
         stop-color="#000007" />
    </radialGradient>
  </defs>
  <path
     id="path19"
     fill-rule="evenodd"
     fill="#005600"
     d="m317.3 364.32c42.992-1.3011 104.56-28.842 104.73-79.123 3.3595-38.07-27.071-50.997-71.246-52.165-12.346-62.951-125.96-86.35-176.06-83.773-57.162 3.0124-144.54 26.564-145.18 101.6-5.008 97.308 58.554 155.18 120.13 161.23 20.821 3.4534 43.894 5.1349 67.076 1.4928 57.76-5.5694 90.475-30.609 100.55-49.265z" />
  <path
     id="path21"
     fill-rule="evenodd"
     fill="url(#e)"
     d="m331.26 298.46c0-20.774 4.3976-63.672 1.3967-74.644-9.6282-25.094-76.778-61.626-145.27-62.701-28.282-1.9369-140.07 22.879-143.87 70.165-7.7247 58.691 12.335 151.52 101.92 167.29 21.155 3.9725 70.224 4.2208 93.734-1.4068 42.377-7.6081 84.661-45.68 92.088-98.702z" />
  <path
     id="path23"
     fill-rule="evenodd"
     fill="url(#c)"
     d="m330.93 286.7c14.759-3.1669 32.633-3.862 42.821-0.6184 9.4774 2.0259 6.6816 7.3805 0.8183 15.366-7.8361 8.7141-39.377 20.581-51.371 22.936-3.7934 8.1316-8.8964 15.953-12.74 23.343 61.853 2.0368 102.91-38.884 94.052-79.728-2.7778-15.936-52.095-21.147-70.377-20.913l-3.2027 39.614z" />
  <path
     id="path25"
     fill-rule="evenodd"
     fill-opacity=".3929"
     fill="#fff"
     d="m161.22 395.51c-2.3543-13.376-6.3191-33.536-7.9013-47.503 0-5.9819 1.6772-22.282 9.8768-20.057 79.983 11.413 133.42-32.298 135.31-36.947-55.72 23.505-82.059 31.874-131.36 26.391-29.663-3.2992-78.587-17.643-104.69-44.336 4.7301 10.913 37.201 39.68 43.458 45.392 3.1073 2.8364 8.0588 23.48 9.8767 30.613 2.051 8.0483 11.427 28.081 19.754 33.78 8.2403 6.3997 25.68 14.075 25.68 12.668z" />
  <path
     id="path27"
     fill-rule="evenodd"
     fill="url(#d)"
     d="m178.01 202.33c-83.359 0.7325-101.04 47.037-102.7 58.059-19.206-22.889-0.92702-79.948 105.67-82.339 84.162-1.8872 138.97 38.074 116.51 85.506 1.9753-30.236-27.333-62.036-119.47-61.226z" />
  <path
     id="path29"
     fill-rule="evenodd"
     fill="url(#b)"
     d="m299.49 252.57c0 28.808-50.41 52.162-112.59 52.162s-112.59-23.354-112.59-52.162 50.41-52.162 112.59-52.162 112.59 23.354 112.59 52.162z" />
  <path
     id="path31"
     fill-rule="evenodd"
     fill-opacity=".7551"
     fill="#fff"
     d="m170.06 228.3c10.398-28.916 132.19-85.94 135.49-104.5 7.1565-40.326-124.12-45.876-136.88-58.222-9.2203-12.468 24.454-77.978 27.936-88.08-13.376 2.4718-114.92 62.648-90.791 101.52 13.313 19.192 114.97 21.383 121.52 34.336 7.7412 15.3-54.301 61.582-57.268 114.95z" />
</svg>
